<?xml version="1.0" encoding="utf-8"?><svg viewBox="0 0 30 32" xmlns="http://www.w3.org/2000/svg" xmlns:xlink="http://www.w3.org/1999/xlink"><style>:root>svg{display:none}:root>svg:target{display:block}</style><svg viewBox="0 0 14 14" id="close" xmlns="http://www.w3.org/2000/svg"><path d="M7 5.586l4.95-4.95 1.415 1.414L8.415 7l4.95 4.95-1.414 1.414L7 8.414l-4.95 4.95L.637 11.95 5.587 7 .637 2.05 2.05.636 7 5.586z"/></svg><svg fill="none" viewBox="0 0 30 32" id="discipline" xmlns="http://www.w3.org/2000/svg"><path d="M11.408 20.827a1.258 1.258 0 01.504-.927 1.287 1.287 0 011.893.394 1.259 1.259 0 01.084 1.05l.051 3.703c-.049.235-.162.453-.326.63a1.337 1.337 0 01-.608.371.734.734 0 01-.11.038l-6.725 4.528a1.293 1.293 0 01-1.485-.339 1.264 1.264 0 01-.294-1.003 1.26 1.26 0 01.567-.881c.153-.099.325-.164.504-.191l5.987-4.024-.042-3.343v-.006zM3.184 8.363a1.406 1.406 0 01-1.507-.346 1.373 1.373 0 01-.255-1.51c.114-.248.299-.458.532-.602a1.404 1.404 0 011.547.047 1.38 1.38 0 01.583 1.164 1.366 1.366 0 01-.439.962c-.133.124-.29.22-.46.285zM23.89 2.416c.73 0 1.447.18 2.087.525.64.345 1.183.844 1.578 1.45a4.28 4.28 0 01.301 4.12 4.318 4.318 0 01-1.35 1.662 4.396 4.396 0 01-4.13.59 4.354 4.354 0 01-1.77-1.215l.742-.317a3.618 3.618 0 004.445.502A3.558 3.558 0 0027.274 7.9c.27-.759.271-1.585.004-2.345a3.559 3.559 0 00-1.474-1.837 3.618 3.618 0 00-4.447.486 3.537 3.537 0 00-1.033 2.111l-.785.336a4.285 4.285 0 011.3-3 4.374 4.374 0 013.051-1.236zm0 1.29c.492 0 .977.117 1.413.343.437.226.811.553 1.092.954a2.997 2.997 0 01-.471 3.965 3.078 3.078 0 01-4.035.028l.797-.345a2.304 2.304 0 002.564-.121c.365-.272.64-.646.79-1.074a2.24 2.24 0 00-.673-2.451 2.297 2.297 0 00-2.55-.289c-.405.21-.737.536-.953.935l-.96.412a3.012 3.012 0 011.068-1.696 3.068 3.068 0 011.905-.662h.013zM23.877.961c.994 0 1.97.252 2.837.732a5.793 5.793 0 012.117 2.009 5.71 5.71 0 01.24 5.612 5.78 5.78 0 01-1.937 2.178 5.874 5.874 0 01-5.655.478 5.81 5.81 0 01-2.282-1.821l.874-.377a4.904 4.904 0 002.88 1.708 4.939 4.939 0 003.316-.532 4.858 4.858 0 002.189-2.52 4.797 4.797 0 00.032-3.324 4.856 4.856 0 00-2.14-2.562 4.938 4.938 0 00-3.305-.594 4.907 4.907 0 00-2.913 1.653 4.815 4.815 0 00-1.15 3.123v.161l-.9.387a5.73 5.73 0 011.679-4.621A5.85 5.85 0 0123.874.965l.003-.003zM10.016 11.626l-1.182 2.07c-.02.037-.042.074-.067.11a1.284 1.284 0 01-.846.573c-.28.052-.571.01-.825-.12-.09-.05-.175-.11-.253-.177l-.029-.026-5.403-4.274a1.283 1.283 0 01-.198-1.755c.24.336.587.583.985.703a1.898 1.898 0 001.623-.256l3.5 2.775.489-.862a1.323 1.323 0 01.877-.95l6.281-2.418c.048-.022.097-.04.147-.057h.02c.334-.113.7-.091 1.018.06l2.052.504 4.28-1.834a1.288 1.288 0 011.87.436 1.257 1.257 0 01-.221 1.49 1.282 1.282 0 01-.452.292l-4.674 2.002a1.36 1.36 0 01-.996.162L15.6 9.48l-.289.111c.113 1.118.96 5.785.57 8.295l6.774 3a1.335 1.335 0 01.673 1.02c.123.205.188.44.188.678l1.034 7.03a1.254 1.254 0 01-.298 1.005 1.28 1.28 0 01-.96.44 1.293 1.293 0 01-.966-.425 1.264 1.264 0 01-.314-1l-.977-6.73-8.124-3.602a2.863 2.863 0 01-.57-.254l-.18-.079a1.318 1.318 0 01-.542-.55 1.3 1.3 0 01-.136-.758l-1.12-5.95a1.283 1.283 0 01-.062-.187l-.284.101zm1.6-4.119a2.525 2.525 0 01-2.71-.61 2.451 2.451 0 01-.465-2.712c.202-.447.534-.825.953-1.085a2.52 2.52 0 012.778.08c.403.283.712.68.888 1.137.229.61.205 1.286-.067 1.88a2.487 2.487 0 01-1.383 1.288" fill="#202020"/></svg></svg>