<svg width="122" height="183" viewBox="0 0 122 183" fill="none" xmlns="http://www.w3.org/2000/svg">
<path d="M1.80831 173.549C1.28293 173.378 0.718992 173.666 0.548715 174.192C0.378438 174.717 0.666306 175.281 1.19169 175.451L1.80831 173.549ZM93.9537 88.6756L93.3611 89.4811L93.9537 88.6756ZM62.5538 128.074L62.7796 127.099L62.5538 128.074ZM93.9004 1.00142C93.3489 1.03085 92.9257 1.50178 92.9551 2.05328L93.4346 11.0405C93.4641 11.592 93.935 12.0152 94.4865 11.9858C95.038 11.9564 95.4612 11.4854 95.4318 10.9339L95.0056 2.9453L102.994 2.51907C103.546 2.48965 103.969 2.01871 103.939 1.46721C103.91 0.915714 103.439 0.492488 102.888 0.521913L93.9004 1.00142ZM1.19169 175.451C49.3398 191.056 85.6261 178.94 103.454 157.894C112.36 147.381 116.636 134.65 115.412 122.129C114.187 109.597 107.461 97.3713 94.5463 87.8701L93.3611 89.4811C105.864 98.6788 112.257 110.409 113.422 122.324C114.587 134.249 110.523 146.455 101.928 156.601C84.7549 176.875 49.3966 188.972 1.80831 173.549L1.19169 175.451ZM94.5463 87.8701C82.8875 79.2931 72.3751 76.8153 63.7773 78.2443C55.1814 79.6731 48.6518 84.984 44.9401 91.6759C41.2347 98.3561 40.3075 106.467 42.9714 113.55C45.6498 120.672 51.9127 126.634 62.328 129.048L62.7796 127.099C52.9497 124.821 47.2632 119.28 44.8434 112.846C42.4091 106.373 43.2349 98.8734 46.689 92.646C50.1368 86.4301 56.1732 81.5357 64.1052 80.2173C72.0354 78.8992 82.0128 81.1325 93.3611 89.4811L94.5463 87.8701ZM62.328 129.048C77.3709 132.535 90.0706 129.033 99.8308 121.078C109.561 113.148 116.304 100.85 119.625 86.8207C126.262 58.7827 119.315 23.4472 94.6221 1.25622L93.2853 2.74378C117.334 24.3565 124.18 58.894 117.678 86.36C114.43 100.082 107.871 111.945 98.5673 119.527C89.2942 127.085 77.2298 130.449 62.7796 127.099L62.328 129.048Z" fill="#EB3333"/>
</svg>
